<svg width="55" height="54" viewBox="0 0 55 54" fill="none" xmlns="http://www.w3.org/2000/svg">
<mask id="path-1-inside-1_14_2122" fill="white">
<path d="M28.1589 8.13245C27.957 8.13209 27.7576 8.17702 27.5753 8.26393C27.3931 8.35084 27.2327 8.47753 27.1059 8.63465L26.8656 8.81285C22.2081 7.37105 16.8945 8.42945 13.1955 11.9934C11.6465 13.4633 10.4941 15.3008 9.84554 17.3353C9.19695 19.3698 9.07317 21.5353 9.48568 23.6304C9.43984 23.6709 9.39483 23.7123 9.35068 23.7546L7.24738 25.7796C6.84052 26.1656 6.5165 26.6304 6.29508 27.1456C6.07366 27.6609 5.95947 28.2158 5.95947 28.7766C5.95947 29.3375 6.07366 29.8924 6.29508 30.4077C6.5165 30.9229 6.84052 31.3877 7.24738 31.7736C8.32198 32.8104 9.81238 33.1992 11.1975 32.94C11.3676 33.7203 11.7645 34.4628 12.3936 35.0676C13.2225 35.8668 14.2998 36.2799 15.3852 36.3096C15.4149 37.3545 15.8442 38.3913 16.6731 39.1905C17.502 39.9897 18.582 40.4055 19.6674 40.4325C19.6944 41.4774 20.1264 42.5169 20.9553 43.3161C21.7488 44.0692 22.7883 44.5094 23.8814 44.555C24.9745 44.6007 26.0471 44.2488 26.9007 43.5645L28.0806 44.6985C29.8086 46.3644 32.6112 46.3644 34.3392 44.6985C35.1654 43.9047 35.5947 42.8733 35.6325 41.8311C36.7423 41.8025 37.8015 41.3606 38.6025 40.5918C39.4287 39.7953 39.858 38.7639 39.8904 37.7217C40.9877 37.6833 42.0325 37.2421 42.8253 36.4824C43.4814 35.8533 43.8864 35.073 44.043 34.2576C44.738 34.3795 45.4519 34.3365 46.1272 34.132C46.8025 33.9275 47.4203 33.5674 47.931 33.0804C48.3383 32.6944 48.6626 32.2295 48.8843 31.714C49.106 31.1985 49.2203 30.6432 49.2203 30.0821C49.2203 29.521 49.106 28.9657 48.8843 28.4502C48.6626 27.9347 48.3383 27.4698 47.931 27.0837L45.987 25.2126L46.3839 23.7276C47.1868 20.6917 46.7802 17.4627 45.2499 14.7204C42.9927 10.6542 38.6133 8.14325 33.8775 8.14325H30.5565C30.4135 8.13616 30.2703 8.13256 30.1272 8.13245H28.1589ZM34.782 18.1656L41.2755 24.4215L41.2836 24.4269L45.9843 28.9575C46.137 29.1024 46.2586 29.2767 46.3417 29.4701C46.4248 29.6634 46.4677 29.8717 46.4677 30.0821C46.4677 30.2925 46.4248 30.5008 46.3417 30.6941C46.2586 30.8875 46.137 31.0618 45.9843 31.2066C45.6689 31.5054 45.251 31.6718 44.8165 31.6718C44.3821 31.6718 43.9642 31.5054 43.6488 31.2066L40.0821 27.7722C39.8207 27.5214 39.4724 27.3814 39.1101 27.3814C38.7478 27.3814 38.3995 27.5214 38.1381 27.7722L38.1003 27.8046C37.973 27.9252 37.8716 28.0705 37.8023 28.2316C37.733 28.3927 37.6973 28.5662 37.6973 28.7415C37.6973 28.9169 37.733 29.0904 37.8023 29.2515C37.8716 29.4126 37.973 29.5578 38.1003 29.6784L40.8813 32.3568C41.5293 32.9778 41.5293 33.9876 40.8813 34.6113C40.5945 34.8831 40.2221 35.0465 39.828 35.0736C39.4338 35.1007 39.0425 34.9898 38.7213 34.7598C38.4532 34.5661 38.1257 34.4725 37.7957 34.4952C37.4657 34.5179 37.1541 34.6555 36.915 34.884C36.6813 35.1075 36.5402 35.4106 36.5197 35.7332C36.4992 36.0558 36.6008 36.3743 36.8043 36.6255C37.0467 36.9291 37.1662 37.3127 37.1392 37.7002C37.1122 38.0877 36.9406 38.451 36.6585 38.718C36.3676 38.9939 35.9887 39.1581 35.5886 39.1818C35.1885 39.2055 34.7929 39.0872 34.4715 38.8476C34.2047 38.6475 33.8758 38.5481 33.5429 38.5669C33.2099 38.5856 32.8943 38.7214 32.6517 38.9502C32.415 39.1733 32.2714 39.4777 32.2499 39.8022C32.2284 40.1268 32.3304 40.4475 32.5356 40.6998C32.7836 41.0075 32.9067 41.3973 32.8802 41.7916C32.8536 42.1859 32.6795 42.5558 32.3925 42.8274C32.0729 43.1307 31.6491 43.2998 31.2085 43.2998C30.7679 43.2998 30.3442 43.1307 30.0246 42.8274L28.8555 41.7015L29.2821 41.2911C29.6894 40.9051 30.0138 40.4402 30.2354 39.9247C30.4571 39.4092 30.5714 38.8539 30.5714 38.2928C30.5714 37.7317 30.4571 37.1764 30.2354 36.6609C30.0138 36.1454 29.6894 35.6804 29.2821 35.2944C28.4752 34.5211 27.4079 34.078 26.2905 34.0524C26.2577 32.9591 25.7949 31.9229 25.0026 31.1688C24.1946 30.3959 23.1262 29.9537 22.0083 29.9295C21.9755 28.8362 21.5127 27.8 20.7204 27.0459C20.2017 26.5522 19.5728 26.1892 18.8859 25.9868C18.199 25.7845 17.4738 25.7486 16.7703 25.8822C16.5923 25.0698 16.1758 24.3289 15.5742 23.7546C15.113 23.3145 14.5634 22.9776 13.9619 22.7663C13.3605 22.5549 12.7209 22.474 12.0858 22.5288C11.8731 20.9467 12.0387 19.3366 12.5691 17.8309C13.0995 16.3252 13.9795 14.9668 15.1368 13.8672C16.3063 12.75 17.7084 11.9052 19.2428 11.3936C20.7772 10.882 22.4057 10.7162 24.0117 10.908L20.0832 13.797C19.5805 14.1623 19.1571 14.6256 18.8385 15.159C18.5199 15.6924 18.3127 16.2849 18.2295 16.9006C18.1462 17.5163 18.1886 18.1425 18.354 18.7414C18.5195 19.3403 18.8046 19.8994 19.1922 20.385C19.976 21.3678 21.1086 22.0106 22.3542 22.1796C23.5999 22.3485 24.8628 22.0307 25.8801 21.2922L30.1353 18.1683H34.7793L34.782 18.1656ZM21.6816 15.9705L28.68 10.8324H30.1272C30.2596 10.8317 30.3919 10.8353 30.5241 10.8432H33.8775C37.6683 10.8432 41.127 12.8547 42.8901 16.0326C44.0835 18.1818 44.3967 20.6793 43.773 23.0364L43.7649 23.0634L36.3129 15.8625C36.0603 15.6092 35.7175 15.4664 35.3598 15.4656H29.6898C29.4032 15.4662 29.1243 15.5579 28.8933 15.7275L24.2817 19.1133C23.8287 19.4377 23.2689 19.5767 22.7168 19.5019C22.1647 19.4272 21.6621 19.1442 21.3117 18.711C21.1484 18.5099 21.028 18.2775 20.958 18.0281C20.8879 17.7787 20.8696 17.5176 20.9043 17.2608C20.9389 17.0041 21.0258 16.7572 21.1595 16.5353C21.2931 16.3134 21.4708 16.1212 21.6816 15.9705ZM22.875 39.2175L22.902 39.1905L25.0026 37.1655L25.0269 37.1439C25.3441 36.8555 25.7586 36.6978 26.1873 36.7023C26.6159 36.7068 27.027 36.8732 27.3381 37.1682C27.4908 37.3131 27.6124 37.4874 27.6955 37.6808C27.7786 37.8741 27.8215 38.0824 27.8215 38.2928C27.8215 38.5032 27.7786 38.7115 27.6955 38.9048C27.6124 39.0982 27.4908 39.2725 27.3381 39.4173L25.2348 41.4423C24.9194 41.7411 24.5015 41.9075 24.067 41.9075C23.6326 41.9075 23.2147 41.7411 22.8993 41.4423C22.7486 41.2997 22.6281 41.1282 22.5449 40.9381C22.4617 40.748 22.4175 40.5431 22.415 40.3357C22.4125 40.1282 22.4517 39.9223 22.5302 39.7302C22.6088 39.5382 22.7278 39.3638 22.875 39.2175ZM23.0829 35.2701L23.0559 35.2944L20.9553 37.3194L20.9283 37.3437C20.6109 37.631 20.1968 37.7878 19.7687 37.7828C19.3407 37.7778 18.9303 37.6114 18.6198 37.3167C18.4688 37.1735 18.3482 37.0012 18.2652 36.8104C18.1823 36.6195 18.1386 36.4138 18.1368 36.2057C18.135 35.9975 18.1752 35.7912 18.255 35.5989C18.3347 35.4066 18.4523 35.2324 18.6009 35.0865L18.6198 35.0676L20.7204 33.0426L20.7393 33.0237C21.0561 32.7331 21.4714 32.5734 21.9013 32.5769C22.3312 32.5804 22.7439 32.7468 23.0559 33.0426C23.207 33.1853 23.3279 33.357 23.4113 33.5473C23.4947 33.7377 23.539 33.9429 23.5415 34.1507C23.5441 34.3585 23.5047 34.5647 23.426 34.757C23.3472 34.9493 23.2305 35.1238 23.0829 35.2701ZM18.7764 31.1688L16.6731 33.1938L16.6542 33.2127C16.3374 33.5034 15.9221 33.6631 15.4922 33.6596C15.0622 33.6561 14.6496 33.4897 14.3376 33.1938C14.1849 33.049 14.0633 32.8747 13.9802 32.6813C13.8971 32.488 13.8542 32.2797 13.8542 32.0693C13.8542 31.8589 13.8971 31.6506 13.9802 31.4573C14.0633 31.2639 14.1849 31.0896 14.3376 30.9447L16.4382 28.9197C16.7538 28.6203 17.1722 28.4533 17.6073 28.4533C18.0423 28.4533 18.4608 28.6203 18.7764 28.9197C18.9278 29.0631 19.0487 29.2354 19.132 29.4266C19.2152 29.6177 19.259 29.8237 19.2608 30.0322C19.2625 30.2406 19.2222 30.4473 19.1422 30.6399C19.0622 30.8324 18.9442 31.0068 18.7953 31.1526L18.7764 31.1688ZM13.6302 27.8775L11.5296 29.9025C11.2143 30.2027 10.7957 30.37 10.3605 30.37C9.92523 30.37 9.50664 30.2027 9.19138 29.9025C9.03826 29.7577 8.91629 29.5832 8.83294 29.3896C8.74958 29.196 8.70659 28.9874 8.70659 28.7766C8.70659 28.5659 8.74958 28.3573 8.83294 28.1637C8.91629 27.9701 9.03826 27.7956 9.19138 27.6507L11.2947 25.6257C11.6101 25.327 12.028 25.1606 12.4624 25.1606C12.8969 25.1606 13.3148 25.327 13.6302 25.6257C13.7833 25.7706 13.9053 25.9451 13.9886 26.1387C14.072 26.3323 14.115 26.5409 14.115 26.7516C14.115 26.9624 14.072 27.171 13.9886 27.3646C13.9053 27.5582 13.7833 27.7327 13.6302 27.8775Z"/>
</mask>
<path d="M28.1589 8.13245C27.957 8.13209 27.7576 8.17702 27.5753 8.26393C27.3931 8.35084 27.2327 8.47753 27.1059 8.63465L26.8656 8.81285C22.2081 7.37105 16.8945 8.42945 13.1955 11.9934C11.6465 13.4633 10.4941 15.3008 9.84554 17.3353C9.19695 19.3698 9.07317 21.5353 9.48568 23.6304C9.43984 23.6709 9.39483 23.7123 9.35068 23.7546L7.24738 25.7796C6.84052 26.1656 6.5165 26.6304 6.29508 27.1456C6.07366 27.6609 5.95947 28.2158 5.95947 28.7766C5.95947 29.3375 6.07366 29.8924 6.29508 30.4077C6.5165 30.9229 6.84052 31.3877 7.24738 31.7736C8.32198 32.8104 9.81238 33.1992 11.1975 32.94C11.3676 33.7203 11.7645 34.4628 12.3936 35.0676C13.2225 35.8668 14.2998 36.2799 15.3852 36.3096C15.4149 37.3545 15.8442 38.3913 16.6731 39.1905C17.502 39.9897 18.582 40.4055 19.6674 40.4325C19.6944 41.4774 20.1264 42.5169 20.9553 43.3161C21.7488 44.0692 22.7883 44.5094 23.8814 44.555C24.9745 44.6007 26.0471 44.2488 26.9007 43.5645L28.0806 44.6985C29.8086 46.3644 32.6112 46.3644 34.3392 44.6985C35.1654 43.9047 35.5947 42.8733 35.6325 41.8311C36.7423 41.8025 37.8015 41.3606 38.6025 40.5918C39.4287 39.7953 39.858 38.7639 39.8904 37.7217C40.9877 37.6833 42.0325 37.2421 42.8253 36.4824C43.4814 35.8533 43.8864 35.073 44.043 34.2576C44.738 34.3795 45.4519 34.3365 46.1272 34.132C46.8025 33.9275 47.4203 33.5674 47.931 33.0804C48.3383 32.6944 48.6626 32.2295 48.8843 31.714C49.106 31.1985 49.2203 30.6432 49.2203 30.0821C49.2203 29.521 49.106 28.9657 48.8843 28.4502C48.6626 27.9347 48.3383 27.4698 47.931 27.0837L45.987 25.2126L46.3839 23.7276C47.1868 20.6917 46.7802 17.4627 45.2499 14.7204C42.9927 10.6542 38.6133 8.14325 33.8775 8.14325H30.5565C30.4135 8.13616 30.2703 8.13256 30.1272 8.13245H28.1589ZM34.782 18.1656L41.2755 24.4215L41.2836 24.4269L45.9843 28.9575C46.137 29.1024 46.2586 29.2767 46.3417 29.4701C46.4248 29.6634 46.4677 29.8717 46.4677 30.0821C46.4677 30.2925 46.4248 30.5008 46.3417 30.6941C46.2586 30.8875 46.137 31.0618 45.9843 31.2066C45.6689 31.5054 45.251 31.6718 44.8165 31.6718C44.3821 31.6718 43.9642 31.5054 43.6488 31.2066L40.0821 27.7722C39.8207 27.5214 39.4724 27.3814 39.1101 27.3814C38.7478 27.3814 38.3995 27.5214 38.1381 27.7722L38.1003 27.8046C37.973 27.9252 37.8716 28.0705 37.8023 28.2316C37.733 28.3927 37.6973 28.5662 37.6973 28.7415C37.6973 28.9169 37.733 29.0904 37.8023 29.2515C37.8716 29.4126 37.973 29.5578 38.1003 29.6784L40.8813 32.3568C41.5293 32.9778 41.5293 33.9876 40.8813 34.6113C40.5945 34.8831 40.2221 35.0465 39.828 35.0736C39.4338 35.1007 39.0425 34.9898 38.7213 34.7598C38.4532 34.5661 38.1257 34.4725 37.7957 34.4952C37.4657 34.5179 37.1541 34.6555 36.915 34.884C36.6813 35.1075 36.5402 35.4106 36.5197 35.7332C36.4992 36.0558 36.6008 36.3743 36.8043 36.6255C37.0467 36.9291 37.1662 37.3127 37.1392 37.7002C37.1122 38.0877 36.9406 38.451 36.6585 38.718C36.3676 38.9939 35.9887 39.1581 35.5886 39.1818C35.1885 39.2055 34.7929 39.0872 34.4715 38.8476C34.2047 38.6475 33.8758 38.5481 33.5429 38.5669C33.2099 38.5856 32.8943 38.7214 32.6517 38.9502C32.415 39.1733 32.2714 39.4777 32.2499 39.8022C32.2284 40.1268 32.3304 40.4475 32.5356 40.6998C32.7836 41.0075 32.9067 41.3973 32.8802 41.7916C32.8536 42.1859 32.6795 42.5558 32.3925 42.8274C32.0729 43.1307 31.6491 43.2998 31.2085 43.2998C30.7679 43.2998 30.3442 43.1307 30.0246 42.8274L28.8555 41.7015L29.2821 41.2911C29.6894 40.9051 30.0138 40.4402 30.2354 39.9247C30.4571 39.4092 30.5714 38.8539 30.5714 38.2928C30.5714 37.7317 30.4571 37.1764 30.2354 36.6609C30.0138 36.1454 29.6894 35.6804 29.2821 35.2944C28.4752 34.5211 27.4079 34.078 26.2905 34.0524C26.2577 32.9591 25.7949 31.9229 25.0026 31.1688C24.1946 30.3959 23.1262 29.9537 22.0083 29.9295C21.9755 28.8362 21.5127 27.8 20.7204 27.0459C20.2017 26.5522 19.5728 26.1892 18.8859 25.9868C18.199 25.7845 17.4738 25.7486 16.7703 25.8822C16.5923 25.0698 16.1758 24.3289 15.5742 23.7546C15.113 23.3145 14.5634 22.9776 13.9619 22.7663C13.3605 22.5549 12.7209 22.474 12.0858 22.5288C11.8731 20.9467 12.0387 19.3366 12.5691 17.8309C13.0995 16.3252 13.9795 14.9668 15.1368 13.8672C16.3063 12.75 17.7084 11.9052 19.2428 11.3936C20.7772 10.882 22.4057 10.7162 24.0117 10.908L20.0832 13.797C19.5805 14.1623 19.1571 14.6256 18.8385 15.159C18.5199 15.6924 18.3127 16.2849 18.2295 16.9006C18.1462 17.5163 18.1886 18.1425 18.354 18.7414C18.5195 19.3403 18.8046 19.8994 19.1922 20.385C19.976 21.3678 21.1086 22.0106 22.3542 22.1796C23.5999 22.3485 24.8628 22.0307 25.8801 21.2922L30.1353 18.1683H34.7793L34.782 18.1656ZM21.6816 15.9705L28.68 10.8324H30.1272C30.2596 10.8317 30.3919 10.8353 30.5241 10.8432H33.8775C37.6683 10.8432 41.127 12.8547 42.8901 16.0326C44.0835 18.1818 44.3967 20.6793 43.773 23.0364L43.7649 23.0634L36.3129 15.8625C36.0603 15.6092 35.7175 15.4664 35.3598 15.4656H29.6898C29.4032 15.4662 29.1243 15.5579 28.8933 15.7275L24.2817 19.1133C23.8287 19.4377 23.2689 19.5767 22.7168 19.5019C22.1647 19.4272 21.6621 19.1442 21.3117 18.711C21.1484 18.5099 21.028 18.2775 20.958 18.0281C20.8879 17.7787 20.8696 17.5176 20.9043 17.2608C20.9389 17.0041 21.0258 16.7572 21.1595 16.5353C21.2931 16.3134 21.4708 16.1212 21.6816 15.9705ZM22.875 39.2175L22.902 39.1905L25.0026 37.1655L25.0269 37.1439C25.3441 36.8555 25.7586 36.6978 26.1873 36.7023C26.6159 36.7068 27.027 36.8732 27.3381 37.1682C27.4908 37.3131 27.6124 37.4874 27.6955 37.6808C27.7786 37.8741 27.8215 38.0824 27.8215 38.2928C27.8215 38.5032 27.7786 38.7115 27.6955 38.9048C27.6124 39.0982 27.4908 39.2725 27.3381 39.4173L25.2348 41.4423C24.9194 41.7411 24.5015 41.9075 24.067 41.9075C23.6326 41.9075 23.2147 41.7411 22.8993 41.4423C22.7486 41.2997 22.6281 41.1282 22.5449 40.9381C22.4617 40.748 22.4175 40.5431 22.415 40.3357C22.4125 40.1282 22.4517 39.9223 22.5302 39.7302C22.6088 39.5382 22.7278 39.3638 22.875 39.2175ZM23.0829 35.2701L23.0559 35.2944L20.9553 37.3194L20.9283 37.3437C20.6109 37.631 20.1968 37.7878 19.7687 37.7828C19.3407 37.7778 18.9303 37.6114 18.6198 37.3167C18.4688 37.1735 18.3482 37.0012 18.2652 36.8104C18.1823 36.6195 18.1386 36.4138 18.1368 36.2057C18.135 35.9975 18.1752 35.7912 18.255 35.5989C18.3347 35.4066 18.4523 35.2324 18.6009 35.0865L18.6198 35.0676L20.7204 33.0426L20.7393 33.0237C21.0561 32.7331 21.4714 32.5734 21.9013 32.5769C22.3312 32.5804 22.7439 32.7468 23.0559 33.0426C23.207 33.1853 23.3279 33.357 23.4113 33.5473C23.4947 33.7377 23.539 33.9429 23.5415 34.1507C23.5441 34.3585 23.5047 34.5647 23.426 34.757C23.3472 34.9493 23.2305 35.1238 23.0829 35.2701ZM18.7764 31.1688L16.6731 33.1938L16.6542 33.2127C16.3374 33.5034 15.9221 33.6631 15.4922 33.6596C15.0622 33.6561 14.6496 33.4897 14.3376 33.1938C14.1849 33.049 14.0633 32.8747 13.9802 32.6813C13.8971 32.488 13.8542 32.2797 13.8542 32.0693C13.8542 31.8589 13.8971 31.6506 13.9802 31.4573C14.0633 31.2639 14.1849 31.0896 14.3376 30.9447L16.4382 28.9197C16.7538 28.6203 17.1722 28.4533 17.6073 28.4533C18.0423 28.4533 18.4608 28.6203 18.7764 28.9197C18.9278 29.0631 19.0487 29.2354 19.132 29.4266C19.2152 29.6177 19.259 29.8237 19.2608 30.0322C19.2625 30.2406 19.2222 30.4473 19.1422 30.6399C19.0622 30.8324 18.9442 31.0068 18.7953 31.1526L18.7764 31.1688ZM13.6302 27.8775L11.5296 29.9025C11.2143 30.2027 10.7957 30.37 10.3605 30.37C9.92523 30.37 9.50664 30.2027 9.19138 29.9025C9.03826 29.7577 8.91629 29.5832 8.83294 29.3896C8.74958 29.196 8.70659 28.9874 8.70659 28.7766C8.70659 28.5659 8.74958 28.3573 8.83294 28.1637C8.91629 27.9701 9.03826 27.7956 9.19138 27.6507L11.2947 25.6257C11.6101 25.327 12.028 25.1606 12.4624 25.1606C12.8969 25.1606 13.3148 25.327 13.6302 25.6257C13.7833 25.7706 13.9053 25.9451 13.9886 26.1387C14.072 26.3323 14.115 26.5409 14.115 26.7516C14.115 26.9624 14.072 27.171 13.9886 27.3646C13.9053 27.5582 13.7833 27.7327 13.6302 27.8775Z" stroke="#1771F1" stroke-width="4" mask="url(#path-1-inside-1_14_2122)"/>
</svg>
