<svg width="45" height="44" viewBox="0 0 45 44" fill="none" xmlns="http://www.w3.org/2000/svg">
<g clip-path="url(#clip0_92_611)">
<path d="M35.5507 9.78523C33.1349 7.20409 30.0079 5.39729 26.5651 4.59333C23.1224 3.78936 19.5186 4.02434 16.2095 5.26854C12.9003 6.51273 10.0344 8.71027 7.97414 11.5833C5.91391 14.4563 4.75188 17.8757 4.635 21.4091C4.51813 24.9425 5.45166 28.4312 7.31753 31.434C9.18341 34.4369 11.8978 36.819 15.1176 38.2792C18.3373 39.7393 21.9177 40.2119 25.406 39.6372C28.8943 39.0625 32.1339 37.4663 34.715 35.0505C38.1721 31.8085 40.2017 27.3275 40.3584 22.5907C40.515 17.8539 38.786 13.2485 35.5507 9.78523ZM11.4575 32.3356C9.41334 30.1515 8.0627 27.4104 7.57642 24.4587C7.09013 21.5071 7.49003 18.4775 8.72554 15.7531C9.96106 13.0287 11.9767 10.7319 14.5176 9.1531C17.0585 7.57428 20.0104 6.78437 23.0003 6.88326C25.9901 6.98216 28.8834 7.96541 31.3144 9.70869C33.7454 11.452 35.6048 13.877 36.6576 16.677C37.7104 19.4771 37.9092 22.5265 37.229 25.4395C36.5487 28.3526 35.0199 30.9985 32.8358 33.0427C29.905 35.7796 26.0083 37.2422 22.0004 37.1096C17.9926 36.9771 14.2011 35.2602 11.4575 32.3356ZM28.1378 28.0233C27.8716 28.2725 27.5172 28.4057 27.1528 28.3937C26.7883 28.3816 26.4435 28.2253 26.1943 27.959L22.4359 23.9435L18.4204 27.7019C18.1542 27.9511 17.7998 28.0843 17.4354 28.0722C17.0709 28.0602 16.7261 27.9038 16.4769 27.6376C16.2277 27.3713 16.0945 27.017 16.1066 26.6525C16.1186 26.2881 16.275 25.9433 16.5412 25.6941L20.5568 21.9357L16.7984 17.9202C16.5492 17.6539 16.4159 17.2996 16.428 16.9351C16.4401 16.5707 16.5964 16.2259 16.8626 15.9767C17.1289 15.7275 17.4832 15.5943 17.8477 15.6063C18.2122 15.6184 18.5569 15.7747 18.8061 16.041L22.5645 20.0565L26.5801 16.2981C26.8463 16.0489 27.2006 15.9157 27.5651 15.9278C27.9296 15.9398 28.2743 16.0962 28.5235 16.3624C28.7727 16.6287 28.906 16.983 28.8939 17.3475C28.8818 17.7119 28.7255 18.0567 28.4592 18.3059L24.4437 22.0643L28.2021 26.0798C28.4513 26.3461 28.5845 26.7004 28.5725 27.0649C28.5604 27.4293 28.4041 27.7741 28.1378 28.0233Z" fill="#1771F1"/>
</g>
<defs>
<clipPath id="clip0_92_611">
<rect width="44" height="44" fill="white" transform="translate(0.5)"/>
</clipPath>
</defs>
</svg>
